<svg width="90" height="28" viewBox="0 0 90 28" fill="none" xmlns="http://www.w3.org/2000/svg">
<g id="Group 7">
<g id="Sarthak Kamra">
<path id="Vector" d="M88.8924 9.99998C88.5284 9.99998 88.2381 9.89598 88.0214 9.68798C87.8134 9.47132 87.6834 9.18532 87.6314 8.82998H87.5534C87.4408 9.27198 87.2111 9.60565 86.8644 9.83098C86.5178 10.0477 86.0888 10.156 85.5774 10.156C84.8841 10.156 84.3511 9.97398 83.9784 9.60998C83.6058 9.24598 83.4194 8.76065 83.4194 8.15398C83.4194 7.45198 83.6708 6.93198 84.1734 6.59398C84.6761 6.24732 85.3911 6.07398 86.3184 6.07398H87.4754V5.57998C87.4754 5.19865 87.3758 4.90398 87.1764 4.69598C86.9771 4.48798 86.6564 4.38398 86.2144 4.38398C85.8244 4.38398 85.5081 4.47065 85.2654 4.64398C85.0314 4.80865 84.8321 5.00798 84.6674 5.24198L83.6794 4.35798C83.9308 3.96798 84.2644 3.65598 84.6804 3.42198C85.0964 3.17932 85.6468 3.05798 86.3314 3.05798C87.2501 3.05798 87.9478 3.26598 88.4244 3.68198C88.9011 4.09798 89.1394 4.69598 89.1394 5.47598V8.67398H89.8154V9.99998H88.8924ZM86.1364 8.94698C86.5091 8.94698 86.8254 8.86465 87.0854 8.69998C87.3454 8.53532 87.4754 8.29265 87.4754 7.97198V7.07498H86.4094C85.5428 7.07498 85.1094 7.35232 85.1094 7.90698V8.12798C85.1094 8.40532 85.1961 8.61332 85.3694 8.75198C85.5514 8.88198 85.8071 8.94698 86.1364 8.94698Z" fill="#212529"/>
<path id="Vector_2" d="M78.9368 9.99999V3.21399H80.6008V4.61799H80.6658C80.7091 4.43599 80.7741 4.26266 80.8608 4.09799C80.9561 3.92466 81.0774 3.77299 81.2248 3.64299C81.3721 3.51299 81.5454 3.40899 81.7448 3.33099C81.9528 3.25299 82.1911 3.21399 82.4598 3.21399H82.8238V4.78699H82.3038C81.7404 4.78699 81.3158 4.86932 81.0298 5.03399C80.7438 5.19866 80.6008 5.46732 80.6008 5.83999V9.99999H78.9368Z" fill="#212529"/>
<path id="Vector_3" d="M67.3967 9.99998V3.21398H69.0607V4.34498H69.1257C69.2557 3.98965 69.4637 3.68632 69.7497 3.43498C70.0357 3.18365 70.4344 3.05798 70.9457 3.05798C71.4137 3.05798 71.8167 3.17065 72.1547 3.39598C72.4927 3.62132 72.7441 3.96365 72.9087 4.42298H72.9347C73.0561 4.04165 73.2944 3.72098 73.6497 3.46098C74.0137 3.19232 74.4687 3.05798 75.0147 3.05798C75.6821 3.05798 76.1934 3.28765 76.5487 3.74698C76.9127 4.20632 77.0947 4.86065 77.0947 5.70998V9.99998H75.4307V5.87898C75.4307 4.90832 75.0667 4.42298 74.3387 4.42298C74.1741 4.42298 74.0137 4.44898 73.8577 4.50098C73.7104 4.54432 73.5761 4.61365 73.4547 4.70898C73.3421 4.79565 73.2511 4.90832 73.1817 5.04698C73.1124 5.17698 73.0777 5.33298 73.0777 5.51498V9.99998H71.4137V5.87898C71.4137 4.90832 71.0497 4.42298 70.3217 4.42298C70.1657 4.42298 70.0097 4.44898 69.8537 4.50098C69.7064 4.54432 69.5721 4.61365 69.4507 4.70898C69.3381 4.79565 69.2427 4.90832 69.1647 5.04698C69.0954 5.17698 69.0607 5.33298 69.0607 5.51498V9.99998H67.3967Z" fill="#212529"/>
<path id="Vector_4" d="M65.1268 9.99998C64.7628 9.99998 64.4725 9.89598 64.2558 9.68798C64.0478 9.47132 63.9178 9.18532 63.8658 8.82998H63.7878C63.6751 9.27198 63.4455 9.60565 63.0988 9.83098C62.7521 10.0477 62.3231 10.156 61.8118 10.156C61.1185 10.156 60.5855 9.97398 60.2128 9.60998C59.8401 9.24598 59.6538 8.76065 59.6538 8.15398C59.6538 7.45198 59.9051 6.93198 60.4078 6.59398C60.9105 6.24732 61.6255 6.07398 62.5528 6.07398H63.7098V5.57998C63.7098 5.19865 63.6101 4.90398 63.4108 4.69598C63.2115 4.48798 62.8908 4.38398 62.4488 4.38398C62.0588 4.38398 61.7425 4.47065 61.4998 4.64398C61.2658 4.80865 61.0665 5.00798 60.9018 5.24198L59.9138 4.35798C60.1651 3.96798 60.4988 3.65598 60.9148 3.42198C61.3308 3.17932 61.8811 3.05798 62.5658 3.05798C63.4845 3.05798 64.1821 3.26598 64.6588 3.68198C65.1355 4.09798 65.3738 4.69598 65.3738 5.47598V8.67398H66.0498V9.99998H65.1268ZM62.3708 8.94698C62.7435 8.94698 63.0598 8.86465 63.3198 8.69998C63.5798 8.53532 63.7098 8.29265 63.7098 7.97198V7.07498H62.6438C61.7771 7.07498 61.3438 7.35232 61.3438 7.90698V8.12798C61.3438 8.40532 61.4305 8.61332 61.6038 8.75198C61.7858 8.88198 62.0415 8.94698 62.3708 8.94698Z" fill="#212529"/>
<path id="Vector_5" d="M54.4931 5.89203L53.2841 7.32203V10H51.5681V0.926025H53.2841V5.39803H53.3491L54.6361 3.69503L56.8851 0.926025H58.8611L55.7021 4.70903L59.1211 10H57.0801L54.4931 5.89203Z" fill="#212529"/>
<path id="Vector_6" d="M41.092 0.380005H42.756V6.17801H42.821L43.718 4.95601L45.239 3.214H47.124L44.784 5.84L47.371 10H45.395L43.653 6.958L42.756 7.933V10H41.092V0.380005Z" fill="#212529"/>
<path id="Vector_7" d="M38.8221 9.99998C38.4581 9.99998 38.1678 9.89598 37.9511 9.68798C37.7431 9.47132 37.6131 9.18532 37.5611 8.82998H37.4831C37.3705 9.27198 37.1408 9.60565 36.7941 9.83098C36.4475 10.0477 36.0185 10.156 35.5071 10.156C34.8138 10.156 34.2808 9.97398 33.9081 9.60998C33.5355 9.24598 33.3491 8.76065 33.3491 8.15398C33.3491 7.45198 33.6005 6.93198 34.1031 6.59398C34.6058 6.24732 35.3208 6.07398 36.2481 6.07398H37.4051V5.57998C37.4051 5.19865 37.3055 4.90398 37.1061 4.69598C36.9068 4.48798 36.5861 4.38398 36.1441 4.38398C35.7541 4.38398 35.4378 4.47065 35.1951 4.64398C34.9611 4.80865 34.7618 5.00798 34.5971 5.24198L33.6091 4.35798C33.8605 3.96798 34.1941 3.65598 34.6101 3.42198C35.0261 3.17932 35.5765 3.05798 36.2611 3.05798C37.1798 3.05798 37.8775 3.26598 38.3541 3.68198C38.8308 4.09798 39.0691 4.69598 39.0691 5.47598V8.67398H39.7451V9.99998H38.8221ZM36.0661 8.94698C36.4388 8.94698 36.7551 8.86465 37.0151 8.69998C37.2751 8.53532 37.4051 8.29265 37.4051 7.97198V7.07498H36.3391C35.4725 7.07498 35.0391 7.35232 35.0391 7.90698V8.12798C35.0391 8.40532 35.1258 8.61332 35.2991 8.75198C35.4811 8.88198 35.7368 8.94698 36.0661 8.94698Z" fill="#212529"/>
<path id="Vector_8" d="M26.1877 0.380005H27.8517V4.345H27.9167C28.0554 3.981 28.2721 3.67767 28.5667 3.435C28.8701 3.18367 29.2861 3.058 29.8147 3.058C30.5167 3.058 31.0541 3.28767 31.4267 3.747C31.7994 4.20634 31.9857 4.86067 31.9857 5.71V10H30.3217V5.879C30.3217 5.39367 30.2351 5.02967 30.0617 4.787C29.8884 4.54434 29.6024 4.42301 29.2037 4.42301C29.0304 4.42301 28.8614 4.44901 28.6967 4.50101C28.5407 4.54434 28.3977 4.61367 28.2677 4.70901C28.1464 4.79567 28.0467 4.90834 27.9687 5.047C27.8907 5.177 27.8517 5.333 27.8517 5.515V10H26.1877V0.380005Z" fill="#212529"/>
<path id="Vector_9" d="M23.4445 9.99998C22.8725 9.99998 22.4348 9.85265 22.1315 9.55798C21.8368 9.25465 21.6895 8.82565 21.6895 8.27098V4.53998H20.6885V3.21398H21.2085C21.4598 3.21398 21.6288 3.15765 21.7155 3.04498C21.8108 2.92365 21.8585 2.74598 21.8585 2.51198V1.35498H23.3535V3.21398H24.7445V4.53998H23.3535V8.67398H24.6405V9.99998H23.4445Z" fill="#212529"/>
<path id="Vector_10" d="M16.1711 9.99999V3.21399H17.8351V4.61799H17.9001C17.9435 4.43599 18.0085 4.26266 18.0951 4.09799C18.1905 3.92466 18.3118 3.77299 18.4591 3.64299C18.6065 3.51299 18.7798 3.40899 18.9791 3.33099C19.1871 3.25299 19.4255 3.21399 19.6941 3.21399H20.0581V4.78699H19.5381C18.9748 4.78699 18.5501 4.86932 18.2641 5.03399C17.9781 5.19866 17.8351 5.46732 17.8351 5.83999V9.99999H16.1711Z" fill="#212529"/>
<path id="Vector_11" d="M13.9015 9.99998C13.5375 9.99998 13.2471 9.89598 13.0305 9.68798C12.8225 9.47132 12.6925 9.18532 12.6405 8.82998H12.5625C12.4498 9.27198 12.2201 9.60565 11.8735 9.83098C11.5268 10.0477 11.0978 10.156 10.5865 10.156C9.89313 10.156 9.36013 9.97398 8.98747 9.60998C8.6148 9.24598 8.42847 8.76065 8.42847 8.15398C8.42847 7.45198 8.6798 6.93198 9.18247 6.59398C9.68513 6.24732 10.4001 6.07398 11.3275 6.07398H12.4845V5.57998C12.4845 5.19865 12.3848 4.90398 12.1855 4.69598C11.9861 4.48798 11.6655 4.38398 11.2235 4.38398C10.8335 4.38398 10.5171 4.47065 10.2745 4.64398C10.0405 4.80865 9.84113 5.00798 9.67647 5.24198L8.68847 4.35798C8.9398 3.96798 9.27347 3.65598 9.68947 3.42198C10.1055 3.17932 10.6558 3.05798 11.3405 3.05798C12.2591 3.05798 12.9568 3.26598 13.4335 3.68198C13.9101 4.09798 14.1485 4.69598 14.1485 5.47598V8.67398H14.8245V9.99998H13.9015ZM11.1455 8.94698C11.5181 8.94698 11.8345 8.86465 12.0945 8.69998C12.3545 8.53532 12.4845 8.29265 12.4845 7.97198V7.07498H11.4185C10.5518 7.07498 10.1185 7.35232 10.1185 7.90698V8.12798C10.1185 8.40532 10.2051 8.61332 10.3785 8.75198C10.5605 8.88198 10.8161 8.94698 11.1455 8.94698Z" fill="#212529"/>
<path id="Vector_12" d="M3.88708 10.156C3.10708 10.156 2.44408 10.0174 1.89808 9.74002C1.36075 9.46269 0.89708 9.09869 0.50708 8.64802L1.66408 7.53002C1.97608 7.89402 2.32275 8.17135 2.70408 8.36202C3.09408 8.55269 3.52308 8.64802 3.99108 8.64802C4.51975 8.64802 4.91841 8.53535 5.18708 8.31002C5.45575 8.07602 5.59008 7.76402 5.59008 7.37402C5.59008 7.07069 5.50341 6.82369 5.33008 6.63302C5.15675 6.44235 4.83175 6.30369 4.35508 6.21702L3.49708 6.08702C1.68575 5.80102 0.78008 4.92135 0.78008 3.44802C0.78008 3.04069 0.853747 2.67235 1.00108 2.34302C1.15708 2.01369 1.37808 1.73202 1.66408 1.49802C1.95008 1.26402 2.29241 1.08635 2.69108 0.965019C3.09841 0.835019 3.55775 0.77002 4.06908 0.77002C4.75375 0.77002 5.35175 0.882686 5.86308 1.10802C6.37441 1.33335 6.81208 1.66702 7.17608 2.10902L6.00608 3.21402C5.78075 2.93669 5.50775 2.71135 5.18708 2.53802C4.86641 2.36469 4.46341 2.27802 3.97808 2.27802C3.48408 2.27802 3.11141 2.37335 2.86008 2.56402C2.61741 2.74602 2.49608 3.00602 2.49608 3.34402C2.49608 3.69069 2.59575 3.94635 2.79508 4.11102C2.99441 4.27569 3.31508 4.39702 3.75708 4.47502L4.60208 4.63102C5.52075 4.79569 6.19675 5.09035 6.63008 5.51502C7.07208 5.93102 7.29308 6.51602 7.29308 7.27002C7.29308 7.70335 7.21508 8.09769 7.05908 8.45302C6.91175 8.79969 6.69075 9.10302 6.39608 9.36302C6.11008 9.61435 5.75475 9.80935 5.33008 9.94802C4.91408 10.0867 4.43308 10.156 3.88708 10.156Z" fill="#212529"/>
</g>
<g id="1.4k views">
<path id="Vector_13" d="M55.6621 27.144C55.0701 27.144 54.5741 27.04 54.1741 26.832C53.7741 26.624 53.4261 26.336 53.1301 25.968L53.9701 25.2C54.2021 25.48 54.4581 25.7 54.7381 25.86C55.0261 26.012 55.3581 26.088 55.7341 26.088C56.1181 26.088 56.4021 26.016 56.5861 25.872C56.7781 25.72 56.8741 25.512 56.8741 25.248C56.8741 25.048 56.8061 24.88 56.6701 24.744C56.5421 24.6 56.3141 24.508 55.9861 24.468L55.4101 24.396C54.7701 24.316 54.2661 24.132 53.8981 23.844C53.5381 23.548 53.3581 23.112 53.3581 22.536C53.3581 22.232 53.4141 21.964 53.5261 21.732C53.6381 21.492 53.7941 21.292 53.9941 21.132C54.2021 20.964 54.4461 20.836 54.7261 20.748C55.0141 20.66 55.3301 20.616 55.6741 20.616C56.2341 20.616 56.6901 20.704 57.0421 20.88C57.4021 21.056 57.7221 21.3 58.0021 21.612L57.1981 22.38C57.0381 22.188 56.8261 22.024 56.5621 21.888C56.3061 21.744 56.0101 21.672 55.6741 21.672C55.3141 21.672 55.0461 21.744 54.8701 21.888C54.7021 22.032 54.6181 22.22 54.6181 22.452C54.6181 22.692 54.6941 22.872 54.8461 22.992C54.9981 23.112 55.2421 23.2 55.5781 23.256L56.1541 23.328C56.8421 23.432 57.3421 23.636 57.6541 23.94C57.9741 24.236 58.1341 24.636 58.1341 25.14C58.1341 25.444 58.0741 25.72 57.9541 25.968C57.8421 26.208 57.6781 26.416 57.4621 26.592C57.2461 26.768 56.9861 26.904 56.6821 27C56.3781 27.096 56.0381 27.144 55.6621 27.144Z" fill="#495057"/>
<path id="Vector_14" d="M43.5073 20.76H44.7793L45.4153 23.376L45.9793 25.74H46.0153L46.6633 23.376L47.4193 20.76H48.5953L49.3633 23.376L50.0233 25.74H50.0593L50.6113 23.376L51.2593 20.76H52.4713L50.7913 27H49.3153L48.4993 24.156L47.9953 22.404H47.9713L47.4793 24.156L46.6513 27H45.2113L43.5073 20.76Z" fill="#495057"/>
<path id="Vector_15" d="M39.9701 27.144C39.5221 27.144 39.1221 27.068 38.7701 26.916C38.4181 26.764 38.1181 26.548 37.8701 26.268C37.6221 25.98 37.4301 25.636 37.2941 25.236C37.1661 24.828 37.1021 24.376 37.1021 23.88C37.1021 23.384 37.1661 22.936 37.2941 22.536C37.4301 22.128 37.6221 21.784 37.8701 21.504C38.1181 21.216 38.4181 20.996 38.7701 20.844C39.1221 20.692 39.5221 20.616 39.9701 20.616C40.4261 20.616 40.8261 20.696 41.1701 20.856C41.5221 21.016 41.8141 21.24 42.0461 21.528C42.2781 21.808 42.4501 22.136 42.5621 22.512C42.6821 22.888 42.7421 23.292 42.7421 23.724V24.216H38.4581V24.42C38.4581 24.9 38.5981 25.296 38.8781 25.608C39.1661 25.912 39.5741 26.064 40.1021 26.064C40.4861 26.064 40.8101 25.98 41.0741 25.812C41.3381 25.644 41.5621 25.416 41.7461 25.128L42.5141 25.884C42.2821 26.268 41.9461 26.576 41.5061 26.808C41.0661 27.032 40.5541 27.144 39.9701 27.144ZM39.9701 21.636C39.7461 21.636 39.5381 21.676 39.3461 21.756C39.1621 21.836 39.0021 21.948 38.8661 22.092C38.7381 22.236 38.6381 22.408 38.5661 22.608C38.4941 22.808 38.4581 23.028 38.4581 23.268V23.352H41.3621V23.232C41.3621 22.752 41.2381 22.368 40.9901 22.08C40.7421 21.784 40.4021 21.636 39.9701 21.636Z" fill="#495057"/>
<path id="Vector_16" d="M35.0061 19.644C34.7341 19.644 34.5341 19.58 34.4061 19.452C34.2861 19.324 34.2261 19.16 34.2261 18.96V18.756C34.2261 18.556 34.2861 18.392 34.4061 18.264C34.5341 18.136 34.7341 18.072 35.0061 18.072C35.2781 18.072 35.4741 18.136 35.5941 18.264C35.7141 18.392 35.7741 18.556 35.7741 18.756V18.96C35.7741 19.16 35.7141 19.324 35.5941 19.452C35.4741 19.58 35.2781 19.644 35.0061 19.644ZM34.3461 20.76H35.6541V27H34.3461V20.76Z" fill="#495057"/>
<path id="Vector_17" d="M29.5615 27L27.4375 20.76H28.7335L29.6815 23.604L30.3175 25.788H30.3895L31.0255 23.604L31.9975 20.76H33.2455L31.0975 27H29.5615Z" fill="#495057"/>
<path id="Vector_18" d="M18.8071 18.12H20.1151V23.568H20.1751L21.0391 22.452L22.5391 20.76H24.0631L21.8791 23.172L24.3271 27H22.7671L20.9791 24.024L20.1151 24.96V27H18.8071V18.12Z" fill="#495057"/>
<path id="Vector_19" d="M14.9837 27V25.368H11.0957V24.204L14.4917 18.624H16.2677V24.3H17.4077V25.368H16.2677V27H14.9837ZM12.2477 24.3H14.9837V19.86H14.8997L12.2477 24.3Z" fill="#495057"/>
<path id="Vector_20" d="M8.93533 27.144C8.63933 27.144 8.41933 27.068 8.27533 26.916C8.13133 26.756 8.05933 26.56 8.05933 26.328V26.148C8.05933 25.916 8.13133 25.724 8.27533 25.572C8.41933 25.412 8.63933 25.332 8.93533 25.332C9.23133 25.332 9.45133 25.412 9.59533 25.572C9.73933 25.724 9.81133 25.916 9.81133 26.148V26.328C9.81133 26.56 9.73933 26.756 9.59533 26.916C9.45133 27.068 9.23133 27.144 8.93533 27.144Z" fill="#495057"/>
<path id="Vector_21" d="M1.05604 27V25.872H3.40804V19.608H3.31204L1.36804 21.684L0.540039 20.94L2.67604 18.624H4.74004V25.872H6.78004V27H1.05604Z" fill="#495057"/>
</g>
</g>
</svg>
