<svg width="73" height="28" viewBox="0 0 73 28" fill="none" xmlns="http://www.w3.org/2000/svg">
<g id="Group 7.2">
<g id="Ronal Jones">
<path id="Vector" d="M70.0514 10.156C69.4014 10.156 68.8554 10.0477 68.4134 9.83101C67.9714 9.60567 67.5814 9.29801 67.2434 8.90801L68.2574 7.92001C68.5087 8.20601 68.7817 8.43134 69.0764 8.59601C69.3797 8.76067 69.7264 8.84301 70.1164 8.84301C70.5151 8.84301 70.8011 8.77367 70.9744 8.63501C71.1564 8.49634 71.2474 8.30567 71.2474 8.06301C71.2474 7.86367 71.1824 7.70767 71.0524 7.59501C70.9311 7.47367 70.7187 7.39134 70.4154 7.34801L69.7394 7.25701C69.0027 7.16167 68.4394 6.95367 68.0494 6.63301C67.6681 6.30367 67.4774 5.82701 67.4774 5.20301C67.4774 4.87367 67.5381 4.57901 67.6594 4.31901C67.7807 4.05034 67.9541 3.82501 68.1794 3.64301C68.4047 3.45234 68.6734 3.30934 68.9854 3.21401C69.3061 3.11001 69.6614 3.05801 70.0514 3.05801C70.3807 3.05801 70.6711 3.08401 70.9224 3.13601C71.1824 3.17934 71.4164 3.24867 71.6244 3.34401C71.8324 3.43067 72.0231 3.54334 72.1964 3.68201C72.3697 3.81201 72.5387 3.95934 72.7034 4.12401L71.7284 5.09901C71.5291 4.89101 71.2907 4.71767 71.0134 4.57901C70.7361 4.44034 70.4327 4.37101 70.1034 4.37101C69.7394 4.37101 69.4751 4.43601 69.3104 4.56601C69.1544 4.69601 69.0764 4.86501 69.0764 5.07301C69.0764 5.29834 69.1414 5.47167 69.2714 5.59301C69.4101 5.70567 69.6397 5.78801 69.9604 5.84001L70.6494 5.93101C72.1141 6.13901 72.8464 6.80634 72.8464 7.93301C72.8464 8.26234 72.7771 8.56567 72.6384 8.84301C72.5084 9.11167 72.3221 9.34567 72.0794 9.54501C71.8367 9.73567 71.5421 9.88734 71.1954 10C70.8574 10.104 70.4761 10.156 70.0514 10.156Z" fill="#212529"/>
<path id="Vector_2" d="M63.3223 10.156C62.8196 10.156 62.3689 10.0737 61.9703 9.90901C61.5803 9.73567 61.2466 9.49734 60.9693 9.19401C60.7006 8.88201 60.4926 8.50934 60.3453 8.07601C60.1979 7.63401 60.1243 7.14001 60.1243 6.59401C60.1243 6.05667 60.1936 5.57134 60.3323 5.13801C60.4796 4.70467 60.6876 4.33634 60.9563 4.03301C61.2249 3.72101 61.5543 3.48267 61.9443 3.31801C62.3343 3.14467 62.7763 3.05801 63.2703 3.05801C63.7989 3.05801 64.2583 3.14901 64.6483 3.33101C65.0383 3.51301 65.3589 3.76001 65.6103 4.07201C65.8616 4.38401 66.0479 4.74801 66.1693 5.16401C66.2993 5.57134 66.3643 6.00901 66.3643 6.47701V7.02301H61.8533V7.19201C61.8533 7.68601 61.9919 8.08467 62.2693 8.38801C62.5466 8.68267 62.9583 8.83001 63.5043 8.83001C63.9203 8.83001 64.2583 8.74334 64.5183 8.57001C64.7869 8.39667 65.0253 8.17567 65.2333 7.90701L66.1303 8.90801C65.8529 9.29801 65.4716 9.60567 64.9863 9.83101C64.5096 10.0477 63.9549 10.156 63.3223 10.156ZM63.2963 4.30601C62.8543 4.30601 62.5033 4.45334 62.2433 4.74801C61.9833 5.04267 61.8533 5.42401 61.8533 5.89201V5.99601H64.6353V5.87901C64.6353 5.41101 64.5183 5.03401 64.2843 4.74801C64.0589 4.45334 63.7296 4.30601 63.2963 4.30601Z" fill="#212529"/>
<path id="Vector_3" d="M52.9368 10V3.21401H54.6008V4.34501H54.6658C54.8044 3.98101 55.0211 3.67767 55.3158 3.43501C55.6191 3.18367 56.0351 3.05801 56.5638 3.05801C57.2658 3.05801 57.8031 3.28767 58.1758 3.74701C58.5484 4.20634 58.7348 4.86067 58.7348 5.71001V10H57.0708V5.87901C57.0708 5.39367 56.9841 5.02967 56.8108 4.78701C56.6374 4.54434 56.3514 4.42301 55.9528 4.42301C55.7794 4.42301 55.6104 4.44901 55.4458 4.50101C55.2898 4.54434 55.1468 4.61367 55.0168 4.70901C54.8954 4.79567 54.7958 4.90834 54.7178 5.04701C54.6398 5.17701 54.6008 5.33301 54.6008 5.51501V10H52.9368Z" fill="#212529"/>
<path id="Vector_4" d="M48.3025 10.156C47.8172 10.156 47.3795 10.0737 46.9895 9.90901C46.6082 9.74434 46.2788 9.50601 46.0015 9.19401C45.7328 8.88201 45.5248 8.50934 45.3775 8.07601C45.2302 7.63401 45.1565 7.14001 45.1565 6.59401C45.1565 6.04801 45.2302 5.55834 45.3775 5.12501C45.5248 4.69167 45.7328 4.32334 46.0015 4.02001C46.2788 3.70801 46.6082 3.46967 46.9895 3.30501C47.3795 3.14034 47.8172 3.05801 48.3025 3.05801C48.7878 3.05801 49.2255 3.14034 49.6155 3.30501C50.0055 3.46967 50.3348 3.70801 50.6035 4.02001C50.8808 4.32334 51.0932 4.69167 51.2405 5.12501C51.3878 5.55834 51.4615 6.04801 51.4615 6.59401C51.4615 7.14001 51.3878 7.63401 51.2405 8.07601C51.0932 8.50934 50.8808 8.88201 50.6035 9.19401C50.3348 9.50601 50.0055 9.74434 49.6155 9.90901C49.2255 10.0737 48.7878 10.156 48.3025 10.156ZM48.3025 8.81701C48.7445 8.81701 49.0912 8.68267 49.3425 8.41401C49.5938 8.14534 49.7195 7.75101 49.7195 7.23101V5.97001C49.7195 5.45867 49.5938 5.06867 49.3425 4.80001C49.0912 4.53134 48.7445 4.39701 48.3025 4.39701C47.8692 4.39701 47.5268 4.53134 47.2755 4.80001C47.0242 5.06867 46.8985 5.45867 46.8985 5.97001V7.23101C46.8985 7.75101 47.0242 8.14534 47.2755 8.41401C47.5268 8.68267 47.8692 8.81701 48.3025 8.81701Z" fill="#212529"/>
<path id="Vector_5" d="M43.6366 0.926003V7.452C43.6366 7.85934 43.5672 8.22767 43.4286 8.557C43.2986 8.88634 43.1079 9.168 42.8566 9.402C42.6139 9.636 42.3149 9.818 41.9596 9.948C41.6042 10.078 41.2056 10.143 40.7636 10.143C39.9229 10.143 39.2686 9.92634 38.8006 9.493C38.3326 9.051 38.0336 8.466 37.9036 7.738L39.4896 7.413C39.5676 7.803 39.7062 8.10634 39.9056 8.323C40.1136 8.531 40.3952 8.635 40.7506 8.635C41.0886 8.635 41.3659 8.531 41.5826 8.323C41.8079 8.10634 41.9206 7.777 41.9206 7.335V2.33H39.0606V0.926003H43.6366Z" fill="#212529"/>
<path id="Vector_6" d="M33.298 10C32.726 10 32.3057 9.85701 32.037 9.571C31.7684 9.285 31.634 8.882 31.634 8.362V0.380005H33.298V8.674H34.195V10H33.298Z" fill="#212529"/>
<path id="Vector_7" d="M29.3644 10C29.0004 10 28.71 9.89601 28.4934 9.68801C28.2854 9.47134 28.1554 9.18534 28.1034 8.83001H28.0254C27.9127 9.27201 27.683 9.60567 27.3364 9.83101C26.9897 10.0477 26.5607 10.156 26.0494 10.156C25.356 10.156 24.823 9.97401 24.4504 9.61001C24.0777 9.24601 23.8914 8.76067 23.8914 8.15401C23.8914 7.45201 24.1427 6.93201 24.6454 6.59401C25.148 6.24734 25.863 6.07401 26.7904 6.07401H27.9474V5.58001C27.9474 5.19867 27.8477 4.90401 27.6484 4.69601C27.449 4.48801 27.1284 4.38401 26.6864 4.38401C26.2964 4.38401 25.98 4.47067 25.7374 4.64401C25.5034 4.80867 25.304 5.00801 25.1394 5.24201L24.1514 4.35801C24.4027 3.96801 24.7364 3.65601 25.1524 3.42201C25.5684 3.17934 26.1187 3.05801 26.8034 3.05801C27.722 3.05801 28.4197 3.26601 28.8964 3.68201C29.373 4.09801 29.6114 4.69601 29.6114 5.47601V8.67401H30.2874V10H29.3644ZM26.6084 8.94701C26.981 8.94701 27.2974 8.86467 27.5574 8.70001C27.8174 8.53534 27.9474 8.29267 27.9474 7.97201V7.07501H26.8814C26.0147 7.07501 25.5814 7.35234 25.5814 7.90701V8.12801C25.5814 8.40534 25.668 8.61334 25.8414 8.75201C26.0234 8.88201 26.279 8.94701 26.6084 8.94701Z" fill="#212529"/>
<path id="Vector_8" d="M16.7297 10V3.21401H18.3937V4.34501H18.4587C18.5974 3.98101 18.8141 3.67767 19.1087 3.43501C19.4121 3.18367 19.8281 3.05801 20.3567 3.05801C21.0587 3.05801 21.5961 3.28767 21.9687 3.74701C22.3414 4.20634 22.5277 4.86067 22.5277 5.71001V10H20.8637V5.87901C20.8637 5.39367 20.7771 5.02967 20.6037 4.78701C20.4304 4.54434 20.1444 4.42301 19.7457 4.42301C19.5724 4.42301 19.4034 4.44901 19.2387 4.50101C19.0827 4.54434 18.9397 4.61367 18.8097 4.70901C18.6884 4.79567 18.5887 4.90834 18.5107 5.04701C18.4327 5.17701 18.3937 5.33301 18.3937 5.51501V10H16.7297Z" fill="#212529"/>
<path id="Vector_9" d="M12.0955 10.156C11.6101 10.156 11.1725 10.0737 10.7825 9.90901C10.4011 9.74434 10.0718 9.50601 9.79446 9.19401C9.5258 8.88201 9.3178 8.50934 9.17046 8.07601C9.02313 7.63401 8.94946 7.14001 8.94946 6.59401C8.94946 6.04801 9.02313 5.55834 9.17046 5.12501C9.3178 4.69167 9.5258 4.32334 9.79446 4.02001C10.0718 3.70801 10.4011 3.46967 10.7825 3.30501C11.1725 3.14034 11.6101 3.05801 12.0955 3.05801C12.5808 3.05801 13.0185 3.14034 13.4085 3.30501C13.7985 3.46967 14.1278 3.70801 14.3965 4.02001C14.6738 4.32334 14.8861 4.69167 15.0335 5.12501C15.1808 5.55834 15.2545 6.04801 15.2545 6.59401C15.2545 7.14001 15.1808 7.63401 15.0335 8.07601C14.8861 8.50934 14.6738 8.88201 14.3965 9.19401C14.1278 9.50601 13.7985 9.74434 13.4085 9.90901C13.0185 10.0737 12.5808 10.156 12.0955 10.156ZM12.0955 8.81701C12.5375 8.81701 12.8841 8.68267 13.1355 8.41401C13.3868 8.14534 13.5125 7.75101 13.5125 7.23101V5.97001C13.5125 5.45867 13.3868 5.06867 13.1355 4.80001C12.8841 4.53134 12.5375 4.39701 12.0955 4.39701C11.6621 4.39701 11.3198 4.53134 11.0685 4.80001C10.8171 5.06867 10.6915 5.45867 10.6915 5.97001V7.23101C10.6915 7.75101 10.8171 8.14534 11.0685 8.41401C11.3198 8.68267 11.6621 8.81701 12.0955 8.81701Z" fill="#212529"/>
<path id="Vector_10" d="M2.78216 10H1.06616V0.926003H5.16116C5.57716 0.926003 5.94983 0.991003 6.27916 1.121C6.6085 1.251 6.88583 1.44167 7.11116 1.693C7.34516 1.93567 7.52283 2.23034 7.64416 2.577C7.77416 2.92367 7.83916 3.30934 7.83916 3.734C7.83916 4.358 7.69616 4.89534 7.41016 5.346C7.13283 5.79667 6.7125 6.11734 6.14916 6.308L8.00816 10H6.09716L4.40716 6.503H2.78216V10ZM4.99216 5.06C5.3215 5.06 5.5815 4.97334 5.77216 4.8C5.96283 4.618 6.05816 4.36234 6.05816 4.033V3.435C6.05816 3.10567 5.96283 2.85434 5.77216 2.681C5.5815 2.50767 5.3215 2.421 4.99216 2.421H2.78216V5.06H4.99216Z" fill="#212529"/>
</g>
<g id="800 views">
<path id="Vector_11" d="M52.8145 27.144C52.2225 27.144 51.7265 27.04 51.3265 26.832C50.9265 26.624 50.5785 26.336 50.2825 25.968L51.1225 25.2C51.3545 25.48 51.6105 25.7 51.8905 25.86C52.1785 26.012 52.5105 26.088 52.8865 26.088C53.2705 26.088 53.5545 26.016 53.7385 25.872C53.9305 25.72 54.0265 25.512 54.0265 25.248C54.0265 25.048 53.9585 24.88 53.8225 24.744C53.6945 24.6 53.4665 24.508 53.1385 24.468L52.5625 24.396C51.9225 24.316 51.4185 24.132 51.0505 23.844C50.6905 23.548 50.5105 23.112 50.5105 22.536C50.5105 22.232 50.5665 21.964 50.6785 21.732C50.7905 21.492 50.9465 21.292 51.1465 21.132C51.3545 20.964 51.5985 20.836 51.8785 20.748C52.1665 20.66 52.4825 20.616 52.8265 20.616C53.3865 20.616 53.8425 20.704 54.1945 20.88C54.5545 21.056 54.8745 21.3 55.1545 21.612L54.3505 22.38C54.1905 22.188 53.9785 22.024 53.7145 21.888C53.4585 21.744 53.1625 21.672 52.8265 21.672C52.4665 21.672 52.1985 21.744 52.0225 21.888C51.8545 22.032 51.7705 22.22 51.7705 22.452C51.7705 22.692 51.8465 22.872 51.9985 22.992C52.1505 23.112 52.3945 23.2 52.7305 23.256L53.3065 23.328C53.9945 23.432 54.4945 23.636 54.8065 23.94C55.1265 24.236 55.2865 24.636 55.2865 25.14C55.2865 25.444 55.2265 25.72 55.1065 25.968C54.9945 26.208 54.8305 26.416 54.6145 26.592C54.3985 26.768 54.1385 26.904 53.8345 27C53.5305 27.096 53.1905 27.144 52.8145 27.144Z" fill="#495057"/>
<path id="Vector_12" d="M40.6597 20.76H41.9317L42.5677 23.376L43.1317 25.74H43.1677L43.8157 23.376L44.5717 20.76H45.7477L46.5157 23.376L47.1757 25.74H47.2117L47.7637 23.376L48.4117 20.76H49.6237L47.9437 27H46.4677L45.6517 24.156L45.1477 22.404H45.1237L44.6317 24.156L43.8037 27H42.3637L40.6597 20.76Z" fill="#495057"/>
<path id="Vector_13" d="M37.1224 27.144C36.6744 27.144 36.2744 27.068 35.9224 26.916C35.5704 26.764 35.2704 26.548 35.0224 26.268C34.7744 25.98 34.5824 25.636 34.4464 25.236C34.3184 24.828 34.2544 24.376 34.2544 23.88C34.2544 23.384 34.3184 22.936 34.4464 22.536C34.5824 22.128 34.7744 21.784 35.0224 21.504C35.2704 21.216 35.5704 20.996 35.9224 20.844C36.2744 20.692 36.6744 20.616 37.1224 20.616C37.5784 20.616 37.9784 20.696 38.3224 20.856C38.6744 21.016 38.9664 21.24 39.1984 21.528C39.4304 21.808 39.6024 22.136 39.7144 22.512C39.8344 22.888 39.8944 23.292 39.8944 23.724V24.216H35.6104V24.42C35.6104 24.9 35.7504 25.296 36.0304 25.608C36.3184 25.912 36.7264 26.064 37.2544 26.064C37.6384 26.064 37.9624 25.98 38.2264 25.812C38.4904 25.644 38.7144 25.416 38.8984 25.128L39.6664 25.884C39.4344 26.268 39.0984 26.576 38.6584 26.808C38.2184 27.032 37.7064 27.144 37.1224 27.144ZM37.1224 21.636C36.8984 21.636 36.6904 21.676 36.4984 21.756C36.3144 21.836 36.1544 21.948 36.0184 22.092C35.8904 22.236 35.7904 22.408 35.7184 22.608C35.6464 22.808 35.6104 23.028 35.6104 23.268V23.352H38.5144V23.232C38.5144 22.752 38.3904 22.368 38.1424 22.08C37.8944 21.784 37.5544 21.636 37.1224 21.636Z" fill="#495057"/>
<path id="Vector_14" d="M32.1587 19.644C31.8867 19.644 31.6867 19.58 31.5587 19.452C31.4387 19.324 31.3787 19.16 31.3787 18.96V18.756C31.3787 18.556 31.4387 18.392 31.5587 18.264C31.6867 18.136 31.8867 18.072 32.1587 18.072C32.4307 18.072 32.6267 18.136 32.7467 18.264C32.8667 18.392 32.9267 18.556 32.9267 18.756V18.96C32.9267 19.16 32.8667 19.324 32.7467 19.452C32.6267 19.58 32.4307 19.644 32.1587 19.644ZM31.4987 20.76H32.8067V27H31.4987V20.76Z" fill="#495057"/>
<path id="Vector_15" d="M26.7141 27L24.5901 20.76H25.8861L26.8341 23.604L27.4701 25.788H27.5421L28.1781 23.604L29.1501 20.76H30.3981L28.2501 27H26.7141Z" fill="#495057"/>
<path id="Vector_16" d="M17.9908 27.144C17.4708 27.144 17.0188 27.048 16.6348 26.856C16.2508 26.656 15.9348 26.372 15.6868 26.004C15.4388 25.636 15.2548 25.184 15.1348 24.648C15.0148 24.112 14.9548 23.5 14.9548 22.812C14.9548 22.132 15.0148 21.524 15.1348 20.988C15.2548 20.444 15.4388 19.988 15.6868 19.62C15.9348 19.252 16.2508 18.972 16.6348 18.78C17.0188 18.58 17.4708 18.48 17.9908 18.48C19.0308 18.48 19.7948 18.86 20.2828 19.62C20.7788 20.38 21.0268 21.444 21.0268 22.812C21.0268 24.18 20.7788 25.244 20.2828 26.004C19.7948 26.764 19.0308 27.144 17.9908 27.144ZM17.9908 25.992C18.2788 25.992 18.5228 25.936 18.7228 25.824C18.9308 25.704 19.0988 25.536 19.2268 25.32C19.3548 25.104 19.4468 24.848 19.5028 24.552C19.5588 24.248 19.5868 23.912 19.5868 23.544V22.08C19.5868 21.712 19.5588 21.38 19.5028 21.084C19.4468 20.78 19.3548 20.52 19.2268 20.304C19.0988 20.088 18.9308 19.924 18.7228 19.812C18.5228 19.692 18.2788 19.632 17.9908 19.632C17.7028 19.632 17.4548 19.692 17.2468 19.812C17.0468 19.924 16.8828 20.088 16.7548 20.304C16.6268 20.52 16.5348 20.78 16.4788 21.084C16.4228 21.38 16.3948 21.712 16.3948 22.08V23.544C16.3948 23.912 16.4228 24.248 16.4788 24.552C16.5348 24.848 16.6268 25.104 16.7548 25.32C16.8828 25.536 17.0468 25.704 17.2468 25.824C17.4548 25.936 17.7028 25.992 17.9908 25.992Z" fill="#495057"/>
<path id="Vector_17" d="M10.7955 27.144C10.2755 27.144 9.82352 27.048 9.43952 26.856C9.05552 26.656 8.73952 26.372 8.49152 26.004C8.24352 25.636 8.05952 25.184 7.93952 24.648C7.81952 24.112 7.75952 23.5 7.75952 22.812C7.75952 22.132 7.81952 21.524 7.93952 20.988C8.05952 20.444 8.24352 19.988 8.49152 19.62C8.73952 19.252 9.05552 18.972 9.43952 18.78C9.82352 18.58 10.2755 18.48 10.7955 18.48C11.8355 18.48 12.5995 18.86 13.0875 19.62C13.5835 20.38 13.8315 21.444 13.8315 22.812C13.8315 24.18 13.5835 25.244 13.0875 26.004C12.5995 26.764 11.8355 27.144 10.7955 27.144ZM10.7955 25.992C11.0835 25.992 11.3275 25.936 11.5275 25.824C11.7355 25.704 11.9035 25.536 12.0315 25.32C12.1595 25.104 12.2515 24.848 12.3075 24.552C12.3635 24.248 12.3915 23.912 12.3915 23.544V22.08C12.3915 21.712 12.3635 21.38 12.3075 21.084C12.2515 20.78 12.1595 20.52 12.0315 20.304C11.9035 20.088 11.7355 19.924 11.5275 19.812C11.3275 19.692 11.0835 19.632 10.7955 19.632C10.5075 19.632 10.2595 19.692 10.0515 19.812C9.85152 19.924 9.68752 20.088 9.55952 20.304C9.43152 20.52 9.33952 20.78 9.28352 21.084C9.22752 21.38 9.19952 21.712 9.19952 22.08V23.544C9.19952 23.912 9.22752 24.248 9.28352 24.552C9.33952 24.848 9.43152 25.104 9.55952 25.32C9.68752 25.536 9.85152 25.704 10.0515 25.824C10.2595 25.936 10.5075 25.992 10.7955 25.992Z" fill="#495057"/>
<path id="Vector_18" d="M3.6001 27.144C3.1121 27.144 2.6801 27.084 2.3041 26.964C1.9361 26.836 1.6241 26.664 1.3681 26.448C1.1201 26.232 0.928098 25.976 0.792098 25.68C0.664098 25.384 0.600098 25.064 0.600098 24.72C0.600098 24.16 0.752098 23.712 1.0561 23.376C1.3681 23.032 1.7761 22.792 2.2801 22.656V22.56C1.8481 22.408 1.5001 22.168 1.2361 21.84C0.980098 21.512 0.852098 21.108 0.852098 20.628C0.852098 20.308 0.912098 20.016 1.0321 19.752C1.1601 19.488 1.3401 19.264 1.5721 19.08C1.8041 18.888 2.0921 18.74 2.4361 18.636C2.7801 18.532 3.1681 18.48 3.6001 18.48C4.0321 18.48 4.4201 18.532 4.7641 18.636C5.1081 18.74 5.3961 18.888 5.6281 19.08C5.8601 19.264 6.0361 19.488 6.1561 19.752C6.2841 20.016 6.3481 20.308 6.3481 20.628C6.3481 21.108 6.2161 21.512 5.9521 21.84C5.6961 22.168 5.3521 22.408 4.9201 22.56V22.656C5.4241 22.792 5.8281 23.032 6.1321 23.376C6.4441 23.712 6.6001 24.16 6.6001 24.72C6.6001 25.064 6.5321 25.384 6.3961 25.68C6.2681 25.976 6.0761 26.232 5.8201 26.448C5.5721 26.664 5.2601 26.836 4.8841 26.964C4.5161 27.084 4.0881 27.144 3.6001 27.144ZM3.6001 26.052C4.1041 26.052 4.4921 25.936 4.7641 25.704C5.0441 25.472 5.1841 25.148 5.1841 24.732V24.492C5.1841 24.076 5.0441 23.752 4.7641 23.52C4.4921 23.288 4.1041 23.172 3.6001 23.172C3.0961 23.172 2.7041 23.288 2.4241 23.52C2.1521 23.752 2.0161 24.076 2.0161 24.492V24.732C2.0161 25.148 2.1521 25.472 2.4241 25.704C2.7041 25.936 3.0961 26.052 3.6001 26.052ZM3.6001 22.128C4.0641 22.128 4.4161 22.028 4.6561 21.828C4.9041 21.628 5.0281 21.336 5.0281 20.952V20.748C5.0281 20.364 4.9041 20.072 4.6561 19.872C4.4161 19.672 4.0641 19.572 3.6001 19.572C3.1361 19.572 2.7801 19.672 2.5321 19.872C2.2921 20.072 2.1721 20.364 2.1721 20.748V20.952C2.1721 21.336 2.2921 21.628 2.5321 21.828C2.7801 22.028 3.1361 22.128 3.6001 22.128Z" fill="#495057"/>
</g>
</g>
</svg>
