<svg width="69" height="28" viewBox="0 0 69 28" fill="none" xmlns="http://www.w3.org/2000/svg">
<g id="Group 7.1">
<g id="Sarah West">
<path id="Vector" d="M66.913 10C66.341 10 65.9033 9.85268 65.6 9.55801C65.3053 9.25468 65.158 8.82568 65.158 8.27101V4.54001H64.157V3.21401H64.677C64.9283 3.21401 65.0973 3.15768 65.184 3.04501C65.2793 2.92368 65.327 2.74601 65.327 2.51201V1.35501H66.822V3.21401H68.213V4.54001H66.822V8.67401H68.109V10H66.913Z" fill="#212529"/>
<path id="Vector_2" d="M60.6312 10.156C59.9812 10.156 59.4352 10.0477 58.9932 9.83101C58.5512 9.60568 58.1612 9.29801 57.8232 8.90801L58.8372 7.92001C59.0886 8.20601 59.3616 8.43135 59.6562 8.59601C59.9596 8.76068 60.3062 8.84301 60.6962 8.84301C61.0949 8.84301 61.3809 8.77368 61.5542 8.63501C61.7362 8.49635 61.8272 8.30568 61.8272 8.06301C61.8272 7.86368 61.7622 7.70768 61.6322 7.59501C61.5109 7.47368 61.2986 7.39135 60.9952 7.34801L60.3192 7.25701C59.5826 7.16168 59.0192 6.95368 58.6292 6.63301C58.2479 6.30368 58.0572 5.82701 58.0572 5.20301C58.0572 4.87368 58.1179 4.57901 58.2392 4.31901C58.3606 4.05035 58.5339 3.82501 58.7592 3.64301C58.9846 3.45235 59.2532 3.30935 59.5652 3.21401C59.8859 3.11001 60.2412 3.05801 60.6312 3.05801C60.9606 3.05801 61.2509 3.08401 61.5022 3.13601C61.7622 3.17935 61.9962 3.24868 62.2042 3.34401C62.4122 3.43068 62.6029 3.54335 62.7762 3.68201C62.9496 3.81201 63.1186 3.95935 63.2832 4.12401L62.3082 5.09901C62.1089 4.89101 61.8706 4.71768 61.5932 4.57901C61.3159 4.44035 61.0126 4.37101 60.6832 4.37101C60.3192 4.37101 60.0549 4.43601 59.8902 4.56601C59.7342 4.69601 59.6562 4.86501 59.6562 5.07301C59.6562 5.29835 59.7212 5.47168 59.8512 5.59301C59.9899 5.70568 60.2196 5.78801 60.5402 5.84001L61.2292 5.93101C62.6939 6.13901 63.4262 6.80635 63.4262 7.93301C63.4262 8.26235 63.3569 8.56568 63.2182 8.84301C63.0882 9.11168 62.9019 9.34568 62.6592 9.54501C62.4166 9.73568 62.1219 9.88735 61.7752 10C61.4372 10.104 61.0559 10.156 60.6312 10.156Z" fill="#212529"/>
<path id="Vector_3" d="M53.9021 10.156C53.3994 10.156 52.9488 10.0737 52.5501 9.90901C52.1601 9.73568 51.8264 9.49735 51.5491 9.19401C51.2804 8.88201 51.0724 8.50935 50.9251 8.07601C50.7778 7.63401 50.7041 7.14001 50.7041 6.59401C50.7041 6.05668 50.7734 5.57135 50.9121 5.13801C51.0594 4.70468 51.2674 4.33635 51.5361 4.03301C51.8048 3.72101 52.1341 3.48268 52.5241 3.31801C52.9141 3.14468 53.3561 3.05801 53.8501 3.05801C54.3788 3.05801 54.8381 3.14901 55.2281 3.33101C55.6181 3.51301 55.9388 3.76001 56.1901 4.07201C56.4414 4.38401 56.6278 4.74801 56.7491 5.16401C56.8791 5.57135 56.9441 6.00901 56.9441 6.47701V7.02301H52.4331V7.19201C52.4331 7.68601 52.5718 8.08468 52.8491 8.38801C53.1264 8.68268 53.5381 8.83001 54.0841 8.83001C54.5001 8.83001 54.8381 8.74335 55.0981 8.57001C55.3668 8.39668 55.6051 8.17568 55.8131 7.90701L56.7101 8.90801C56.4328 9.29801 56.0514 9.60568 55.5661 9.83101C55.0894 10.0477 54.5348 10.156 53.9021 10.156ZM53.8761 4.30601C53.4341 4.30601 53.0831 4.45335 52.8231 4.74801C52.5631 5.04268 52.4331 5.42401 52.4331 5.89201V5.99601H55.2151V5.87901C55.2151 5.41101 55.0981 5.03401 54.8641 4.74801C54.6388 4.45335 54.3094 4.30601 53.8761 4.30601Z" fill="#212529"/>
<path id="Vector_4" d="M40.5933 10L38.4873 0.925995H40.2033L41.1003 5.281L41.6593 8.06299H41.6983L42.3483 5.281L43.3883 0.925995H45.2863L46.3263 5.281L46.9633 8.06299H47.0023L47.5743 5.281L48.4973 0.925995H50.1353L47.9643 10H46.0273L44.8703 5.203L44.3113 2.81099H44.2853L43.7003 5.203L42.5433 10H40.5933Z" fill="#212529"/>
<path id="Vector_5" d="M28.3965 0.380005H30.0605V4.345H30.1255C30.2642 3.981 30.4808 3.67767 30.7755 3.435C31.0788 3.18367 31.4948 3.058 32.0235 3.058C32.7255 3.058 33.2628 3.28767 33.6355 3.747C34.0082 4.20634 34.1945 4.86067 34.1945 5.71V10H32.5305V5.879C32.5305 5.39367 32.4438 5.02967 32.2705 4.787C32.0971 4.54434 31.8112 4.42301 31.4125 4.42301C31.2392 4.42301 31.0702 4.44901 30.9055 4.50101C30.7495 4.54434 30.6065 4.61367 30.4765 4.70901C30.3552 4.79567 30.2555 4.90834 30.1775 5.047C30.0995 5.177 30.0605 5.333 30.0605 5.515V10H28.3965V0.380005Z" fill="#212529"/>
<path id="Vector_6" d="M26.1268 10C25.7628 10 25.4725 9.89601 25.2558 9.68801C25.0478 9.47135 24.9178 9.18535 24.8658 8.83001H24.7878C24.6751 9.27201 24.4455 9.60568 24.0988 9.83101C23.7521 10.0477 23.3231 10.156 22.8118 10.156C22.1185 10.156 21.5855 9.97401 21.2128 9.61001C20.8401 9.24601 20.6538 8.76068 20.6538 8.15401C20.6538 7.45201 20.9051 6.93201 21.4078 6.59401C21.9105 6.24735 22.6255 6.07401 23.5528 6.07401H24.7098V5.58001C24.7098 5.19868 24.6101 4.90401 24.4108 4.69601C24.2115 4.48801 23.8908 4.38401 23.4488 4.38401C23.0588 4.38401 22.7425 4.47068 22.4998 4.64401C22.2658 4.80868 22.0665 5.00801 21.9018 5.24201L20.9138 4.35801C21.1651 3.96801 21.4988 3.65601 21.9148 3.42201C22.3308 3.17935 22.8811 3.05801 23.5658 3.05801C24.4845 3.05801 25.1821 3.26601 25.6588 3.68201C26.1355 4.09801 26.3738 4.69601 26.3738 5.47601V8.67401H27.0498V10H26.1268ZM23.3708 8.94701C23.7435 8.94701 24.0598 8.86468 24.3198 8.70001C24.5798 8.53535 24.7098 8.29268 24.7098 7.97201V7.07501H23.6438C22.7771 7.07501 22.3438 7.35235 22.3438 7.90701V8.12801C22.3438 8.40535 22.4305 8.61335 22.6038 8.75201C22.7858 8.88201 23.0415 8.94701 23.3708 8.94701Z" fill="#212529"/>
<path id="Vector_7" d="M16.1709 10V3.21402H17.8349V4.61802H17.8999C17.9432 4.43602 18.0082 4.26269 18.0949 4.09802C18.1902 3.92469 18.3116 3.77302 18.4589 3.64302C18.6062 3.51302 18.7796 3.40902 18.9789 3.33102C19.1869 3.25302 19.4252 3.21402 19.6939 3.21402H20.0579V4.78702H19.5379C18.9746 4.78702 18.5499 4.86935 18.2639 5.03402C17.9779 5.19869 17.8349 5.46735 17.8349 5.84002V10H16.1709Z" fill="#212529"/>
<path id="Vector_8" d="M13.9012 10C13.5372 10 13.2469 9.89601 13.0302 9.68801C12.8222 9.47135 12.6922 9.18535 12.6402 8.83001H12.5622C12.4496 9.27201 12.2199 9.60568 11.8732 9.83101C11.5266 10.0477 11.0976 10.156 10.5862 10.156C9.89289 10.156 9.35989 9.97401 8.98722 9.61001C8.61456 9.24601 8.42822 8.76068 8.42822 8.15401C8.42822 7.45201 8.67956 6.93201 9.18222 6.59401C9.68489 6.24735 10.3999 6.07401 11.3272 6.07401H12.4842V5.58001C12.4842 5.19868 12.3846 4.90401 12.1852 4.69601C11.9859 4.48801 11.6652 4.38401 11.2232 4.38401C10.8332 4.38401 10.5169 4.47068 10.2742 4.64401C10.0402 4.80868 9.84089 5.00801 9.67622 5.24201L8.68822 4.35801C8.93956 3.96801 9.27322 3.65601 9.68922 3.42201C10.1052 3.17935 10.6556 3.05801 11.3402 3.05801C12.2589 3.05801 12.9566 3.26601 13.4332 3.68201C13.9099 4.09801 14.1482 4.69601 14.1482 5.47601V8.67401H14.8242V10H13.9012ZM11.1452 8.94701C11.5179 8.94701 11.8342 8.86468 12.0942 8.70001C12.3542 8.53535 12.4842 8.29268 12.4842 7.97201V7.07501H11.4182C10.5516 7.07501 10.1182 7.35235 10.1182 7.90701V8.12801C10.1182 8.40535 10.2049 8.61335 10.3782 8.75201C10.5602 8.88201 10.8159 8.94701 11.1452 8.94701Z" fill="#212529"/>
<path id="Vector_9" d="M3.88684 10.156C3.10684 10.156 2.44384 10.0174 1.89784 9.74002C1.3605 9.46269 0.896836 9.09869 0.506836 8.64802L1.66384 7.53002C1.97584 7.89402 2.3225 8.17135 2.70384 8.36202C3.09384 8.55269 3.52284 8.64802 3.99084 8.64802C4.5195 8.64802 4.91817 8.53535 5.18684 8.31002C5.4555 8.07602 5.58984 7.76402 5.58984 7.37402C5.58984 7.07069 5.50317 6.82369 5.32984 6.63302C5.1565 6.44235 4.8315 6.30369 4.35484 6.21702L3.49684 6.08702C1.6855 5.80102 0.779836 4.92135 0.779836 3.44802C0.779836 3.04069 0.853503 2.67235 1.00084 2.34302C1.15684 2.01369 1.37784 1.73202 1.66384 1.49802C1.94984 1.26402 2.29217 1.08635 2.69084 0.965019C3.09817 0.835019 3.5575 0.77002 4.06884 0.77002C4.7535 0.77002 5.3515 0.882686 5.86284 1.10802C6.37417 1.33335 6.81184 1.66702 7.17584 2.10902L6.00584 3.21402C5.7805 2.93669 5.5075 2.71135 5.18684 2.53802C4.86617 2.36469 4.46317 2.27802 3.97784 2.27802C3.48384 2.27802 3.11117 2.37335 2.85984 2.56402C2.61717 2.74602 2.49584 3.00602 2.49584 3.34402C2.49584 3.69069 2.5955 3.94635 2.79484 4.11102C2.99417 4.27569 3.31484 4.39702 3.75684 4.47502L4.60184 4.63102C5.5205 4.79569 6.1965 5.09035 6.62984 5.51502C7.07184 5.93102 7.29284 6.51602 7.29284 7.27002C7.29284 7.70335 7.21484 8.09769 7.05884 8.45302C6.9115 8.79969 6.6905 9.10302 6.39584 9.36302C6.10984 9.61435 5.7545 9.80935 5.32984 9.94802C4.91384 10.0867 4.43284 10.156 3.88684 10.156Z" fill="#212529"/>
</g>
<g id="4.8k views">
<path id="Vector_10" d="M55.6621 27.144C55.0701 27.144 54.5741 27.04 54.1741 26.832C53.7741 26.624 53.4261 26.336 53.1301 25.968L53.9701 25.2C54.2021 25.48 54.4581 25.7 54.7381 25.86C55.0261 26.012 55.3581 26.088 55.7341 26.088C56.1181 26.088 56.4021 26.016 56.5861 25.872C56.7781 25.72 56.8741 25.512 56.8741 25.248C56.8741 25.048 56.8061 24.88 56.6701 24.744C56.5421 24.6 56.3141 24.508 55.9861 24.468L55.4101 24.396C54.7701 24.316 54.2661 24.132 53.8981 23.844C53.5381 23.548 53.3581 23.112 53.3581 22.536C53.3581 22.232 53.4141 21.964 53.5261 21.732C53.6381 21.492 53.7941 21.292 53.9941 21.132C54.2021 20.964 54.4461 20.836 54.7261 20.748C55.0141 20.66 55.3301 20.616 55.6741 20.616C56.2341 20.616 56.6901 20.704 57.0421 20.88C57.4021 21.056 57.7221 21.3 58.0021 21.612L57.1981 22.38C57.0381 22.188 56.8261 22.024 56.5621 21.888C56.3061 21.744 56.0101 21.672 55.6741 21.672C55.3141 21.672 55.0461 21.744 54.8701 21.888C54.7021 22.032 54.6181 22.22 54.6181 22.452C54.6181 22.692 54.6941 22.872 54.8461 22.992C54.9981 23.112 55.2421 23.2 55.5781 23.256L56.1541 23.328C56.8421 23.432 57.3421 23.636 57.6541 23.94C57.9741 24.236 58.1341 24.636 58.1341 25.14C58.1341 25.444 58.0741 25.72 57.9541 25.968C57.8421 26.208 57.6781 26.416 57.4621 26.592C57.2461 26.768 56.9861 26.904 56.6821 27C56.3781 27.096 56.0381 27.144 55.6621 27.144Z" fill="#495057"/>
<path id="Vector_11" d="M43.5073 20.76H44.7793L45.4153 23.376L45.9793 25.74H46.0153L46.6633 23.376L47.4193 20.76H48.5953L49.3633 23.376L50.0233 25.74H50.0593L50.6113 23.376L51.2593 20.76H52.4713L50.7913 27H49.3153L48.4993 24.156L47.9953 22.404H47.9713L47.4793 24.156L46.6513 27H45.2113L43.5073 20.76Z" fill="#495057"/>
<path id="Vector_12" d="M39.9698 27.144C39.5218 27.144 39.1218 27.068 38.7698 26.916C38.4178 26.764 38.1178 26.548 37.8698 26.268C37.6218 25.98 37.4298 25.636 37.2938 25.236C37.1658 24.828 37.1018 24.376 37.1018 23.88C37.1018 23.384 37.1658 22.936 37.2938 22.536C37.4298 22.128 37.6218 21.784 37.8698 21.504C38.1178 21.216 38.4178 20.996 38.7698 20.844C39.1218 20.692 39.5218 20.616 39.9698 20.616C40.4258 20.616 40.8258 20.696 41.1698 20.856C41.5218 21.016 41.8138 21.24 42.0458 21.528C42.2778 21.808 42.4498 22.136 42.5618 22.512C42.6818 22.888 42.7418 23.292 42.7418 23.724V24.216H38.4578V24.42C38.4578 24.9 38.5978 25.296 38.8778 25.608C39.1658 25.912 39.5738 26.064 40.1018 26.064C40.4858 26.064 40.8098 25.98 41.0738 25.812C41.3378 25.644 41.5618 25.416 41.7458 25.128L42.5138 25.884C42.2818 26.268 41.9458 26.576 41.5058 26.808C41.0658 27.032 40.5538 27.144 39.9698 27.144ZM39.9698 21.636C39.7458 21.636 39.5378 21.676 39.3458 21.756C39.1618 21.836 39.0018 21.948 38.8658 22.092C38.7378 22.236 38.6378 22.408 38.5658 22.608C38.4938 22.808 38.4578 23.028 38.4578 23.268V23.352H41.3618V23.232C41.3618 22.752 41.2378 22.368 40.9898 22.08C40.7418 21.784 40.4018 21.636 39.9698 21.636Z" fill="#495057"/>
<path id="Vector_13" d="M35.0061 19.644C34.7341 19.644 34.5341 19.58 34.4061 19.452C34.2861 19.324 34.2261 19.16 34.2261 18.96V18.756C34.2261 18.556 34.2861 18.392 34.4061 18.264C34.5341 18.136 34.7341 18.072 35.0061 18.072C35.2781 18.072 35.4741 18.136 35.5941 18.264C35.7141 18.392 35.7741 18.556 35.7741 18.756V18.96C35.7741 19.16 35.7141 19.324 35.5941 19.452C35.4741 19.58 35.2781 19.644 35.0061 19.644ZM34.3461 20.76H35.6541V27H34.3461V20.76Z" fill="#495057"/>
<path id="Vector_14" d="M29.5615 27L27.4375 20.76H28.7335L29.6815 23.604L30.3175 25.788H30.3895L31.0255 23.604L31.9975 20.76H33.2455L31.0975 27H29.5615Z" fill="#495057"/>
<path id="Vector_15" d="M18.8071 18.12H20.1151V23.568H20.1751L21.0391 22.452L22.5391 20.76H24.0631L21.8791 23.172L24.3271 27H22.7671L20.9791 24.024L20.1151 24.96V27H18.8071V18.12Z" fill="#495057"/>
<path id="Vector_16" d="M14.2756 27.144C13.7876 27.144 13.3556 27.084 12.9796 26.964C12.6116 26.836 12.2996 26.664 12.0436 26.448C11.7956 26.232 11.6036 25.976 11.4676 25.68C11.3396 25.384 11.2756 25.064 11.2756 24.72C11.2756 24.16 11.4276 23.712 11.7316 23.376C12.0436 23.032 12.4516 22.792 12.9556 22.656V22.56C12.5236 22.408 12.1756 22.168 11.9116 21.84C11.6556 21.512 11.5276 21.108 11.5276 20.628C11.5276 20.308 11.5876 20.016 11.7076 19.752C11.8356 19.488 12.0156 19.264 12.2476 19.08C12.4796 18.888 12.7676 18.74 13.1116 18.636C13.4556 18.532 13.8436 18.48 14.2756 18.48C14.7076 18.48 15.0956 18.532 15.4396 18.636C15.7836 18.74 16.0716 18.888 16.3036 19.08C16.5356 19.264 16.7116 19.488 16.8316 19.752C16.9596 20.016 17.0236 20.308 17.0236 20.628C17.0236 21.108 16.8916 21.512 16.6276 21.84C16.3716 22.168 16.0276 22.408 15.5956 22.56V22.656C16.0996 22.792 16.5036 23.032 16.8076 23.376C17.1196 23.712 17.2756 24.16 17.2756 24.72C17.2756 25.064 17.2076 25.384 17.0716 25.68C16.9436 25.976 16.7516 26.232 16.4956 26.448C16.2476 26.664 15.9356 26.836 15.5596 26.964C15.1916 27.084 14.7636 27.144 14.2756 27.144ZM14.2756 26.052C14.7796 26.052 15.1676 25.936 15.4396 25.704C15.7196 25.472 15.8596 25.148 15.8596 24.732V24.492C15.8596 24.076 15.7196 23.752 15.4396 23.52C15.1676 23.288 14.7796 23.172 14.2756 23.172C13.7716 23.172 13.3796 23.288 13.0996 23.52C12.8276 23.752 12.6916 24.076 12.6916 24.492V24.732C12.6916 25.148 12.8276 25.472 13.0996 25.704C13.3796 25.936 13.7716 26.052 14.2756 26.052ZM14.2756 22.128C14.7396 22.128 15.0916 22.028 15.3316 21.828C15.5796 21.628 15.7036 21.336 15.7036 20.952V20.748C15.7036 20.364 15.5796 20.072 15.3316 19.872C15.0916 19.672 14.7396 19.572 14.2756 19.572C13.8116 19.572 13.4556 19.672 13.2076 19.872C12.9676 20.072 12.8476 20.364 12.8476 20.748V20.952C12.8476 21.336 12.9676 21.628 13.2076 21.828C13.4556 22.028 13.8116 22.128 14.2756 22.128Z" fill="#495057"/>
<path id="Vector_17" d="M8.93533 27.144C8.63933 27.144 8.41933 27.068 8.27533 26.916C8.13133 26.756 8.05933 26.56 8.05933 26.328V26.148C8.05933 25.916 8.13133 25.724 8.27533 25.572C8.41933 25.412 8.63933 25.332 8.93533 25.332C9.23133 25.332 9.45133 25.412 9.59533 25.572C9.73933 25.724 9.81133 25.916 9.81133 26.148V26.328C9.81133 26.56 9.73933 26.756 9.59533 26.916C9.45133 27.068 9.23133 27.144 8.93533 27.144Z" fill="#495057"/>
<path id="Vector_18" d="M4.30792 27V25.368H0.419922V24.204L3.81592 18.624H5.59192V24.3H6.73192V25.368H5.59192V27H4.30792ZM1.57192 24.3H4.30792V19.86H4.22392L1.57192 24.3Z" fill="#495057"/>
</g>
</g>
</svg>
